<?xml version="1.0" encoding="UTF-8"?>
<svg width="40px" height="40px" viewBox="0 0 40 40" version="1.1" xmlns="http://www.w3.org/2000/svg" xmlns:xlink="http://www.w3.org/1999/xlink">
    <title>ic/40px/3</title>
    <defs>
        <linearGradient x1="50%" y1="15.6035094%" x2="50%" y2="100%" id="linearGradient-1">
            <stop stop-color="#FFFFFF" stop-opacity="0" offset="0%"></stop>
            <stop stop-color="#FF6900" stop-opacity="0.45" offset="100%"></stop>
        </linearGradient>
    </defs>
    <g id="页面-1" stroke="none" stroke-width="1" fill="none" fill-rule="evenodd">
        <g id="ClawWallet" transform="translate(-1184.000000, -1342.000000)" fill-rule="nonzero">
            <g id="第二屏" transform="translate(0.000000, 898.000000)">
                <g id="编组-7" transform="translate(380.000000, 396.000000)">
                    <g id="卡片" transform="translate(774.000000, 0.000000)">
                        <g id="ic/40px/3" transform="translate(30.000000, 48.000000)">
                            <rect id="矩形" x="0" y="0" width="40" height="40"></rect>
                            <g id="icon" transform="translate(5.000000, 5.000000)">
                                <path d="M25.7137267,12.8568634 C25.7137267,19.9577649 19.9572059,25.7142857 12.8568634,25.7142857 C5.75652082,25.7142857 0,19.9577649 0,12.8574224 C0,5.75596183 5.75652082,0 12.8568634,0 C19.9572059,0 25.7137267,5.75652082 25.7137267,12.8568634" id="路径" fill="url(#linearGradient-1)"></path>
                                <path d="M25.4999839,3.22265311e-05 C23.014706,3.22265311e-05 21,2.01473827 21,4.50001611 C21,4.97377835 21.073412,5.43033161 21.2091502,5.85920229 L8.63577575,12.8443996 L9.36422425,14.1556327 L21.8951886,7.19399297 C22.7159016,8.29040401 24.0250722,9 25.5000161,9 C27.985294,9 30,6.98529396 30,4.50001611 C30,2.01473827 27.9852617,3.22265311e-05 25.4999839,3.22265311e-05 Z M25.4999839,7.50001611 C23.8457638,7.50001611 22.4999839,6.15423618 22.4999839,4.50001611 C22.4999839,2.84579605 23.8457638,1.50001611 25.4999839,1.50001611 C27.154204,1.50001611 28.4999839,2.84579605 28.4999839,4.50001611 C28.4999839,6.15423618 27.154204,7.50001611 25.4999839,7.50001611 Z" id="形状" fill="#FF6900"></path>
                                <path d="M22.4412349,18.1325155 C20.184282,18.1325155 18.2157889,19.366695 17.1732283,21.1968719 L9.65184604,17.1029745 C9.71729965,16.7811008 9.75019679,16.4534573 9.75004028,16.124996 C9.75004028,14.4579175 8.91302059,12.9865186 7.63655993,12.1074433 L10.1730457,6.15388169 C10.8071994,6.06016693 11.4178922,5.76948362 11.9060274,5.28138058 C13.1142001,4.07320794 13.1142001,2.11435047 11.9060274,0.906145599 C11.3019411,0.302059275 10.5101675,0 9.71842606,0 C8.92668464,0 8.134911,0.302059275 7.53082468,0.906145599 C6.32265203,2.11431825 6.32265203,4.07317571 7.53082468,5.28138058 C7.84192041,5.59296774 8.21619727,5.83424384 8.6284281,5.9889463 L6.24276246,11.4448013 C5.79839943,11.3152793 5.33785861,11.2496846 4.87500403,11.2499919 C2.18263849,11.2499919 0,13.4325982 0,16.124996 C0,18.8173937 2.18263849,21 4.87500403,21 C6.69751104,21 8.28621456,19.9997207 9.1226864,18.5183638 L16.5970502,22.5891869 C16.4543649,23.111246 16.3822134,23.6500577 16.3825182,24.1912645 C16.3825182,27.5374096 19.095122,30.2500134 22.4412671,30.2500134 C25.7874123,30.2500134 28.5000161,27.5374096 28.5000161,24.1912645 C28.5000161,20.8451193 25.7873801,18.1325155 22.4412349,18.1325155 Z M8.59143204,1.96681742 C8.89246007,1.66578939 9.29268135,1.50001611 9.71839383,1.50001611 C10.1441063,1.50001611 10.5443276,1.66578939 10.8453234,1.96681742 C11.4667154,2.58820939 11.4667154,3.5993168 10.8453234,4.22070877 C10.5442954,4.5217368 10.1440741,4.68751007 9.7183616,4.68751007 C9.29264913,4.68751007 8.89242784,4.5217368 8.59143204,4.22070877 C7.97004007,3.5993168 7.97004007,2.58820939 8.59143204,1.96681742 L8.59143204,1.96681742 Z M4.87500403,19.5000161 C3.01401854,19.5000161 1.49998389,17.9859815 1.49998389,16.1250282 C1.49998389,14.2640749 3.01398631,12.7500403 4.87500403,12.7500403 C6.73602174,12.7500403 8.25002417,14.2640749 8.25002417,16.1250282 C8.25002417,17.9859815 6.73598952,19.5000161 4.87500403,19.5000161 Z M25.6647581,27.4147555 C24.8037297,28.2757839 23.6589144,28.7499651 22.4412349,28.7499651 C21.2235554,28.7499651 20.0787402,28.2757839 19.2177117,27.4147555 C18.3566832,26.553727 17.8824698,25.4089117 17.8824698,24.1912322 C17.8824698,22.9735528 18.356651,21.8287375 19.2177117,20.967709 C20.0787402,20.1066806 21.2235554,19.6324994 22.4412349,19.6324994 C23.6589144,19.6324994 24.8037297,20.1066806 25.6647581,20.967709 C26.5257866,21.8287375 26.9999678,22.9735528 26.9999678,24.1912322 C26.9999678,25.4089117 26.5257866,26.553727 25.6647581,27.4147555 Z" id="形状" fill="#FF6900"></path>
                            </g>
                        </g>
                    </g>
                </g>
            </g>
        </g>
    </g>
</svg>